<?xml version="1.0" encoding="UTF-8"?>
<svg xmlns="http://www.w3.org/2000/svg" width="440.063" height="175.934" viewBox="0 0 440.063 175.934">
  <g id="a" data-name="Layer 1"/>
  <g id="b" data-name="Layer 2">
    <g id="c" data-name="Vector layer">
      <g>
        <path d="M177.557,135.368c-2.641-1.031-5.051-2.621-7.57-3.93-3.113,3.504-8.16,1.207-11.711-.379-2.102,6.703-9.672,3.512-14.102,1.285-7.188-3.078-14.195-6.66-20.691-11.023-4.645,5.785-12.074-.582-16.887-3.082-4.93,3.781-10.324-1.957-14.75-4.062-1.574,2.121-4.371,2.805-6.855,1.867-1.141-.43-2.211-1.199-3.242-1.91-5.082,8.605-13.5-1.699-18.648-5.121-15.484-12.07-29.895-25.688-41.449-41.625-3.207-4.422-9.387-11.988-14.469-19.965-.074-.172-.148-.348-.227-.52-.219-.484-.398-.988-.59-1.48-.199-.52-.402-1.039-.602-1.559-.379-.996-.762-1.988-1.152-2.977-.223-.566-.43-1.137-.656-1.695-.172-.426-.301-.855-.434-1.293-.625-2.051-1.141-4.137-1.598-6.227-.062-.281-.121-.562-.18-.844-.051-.254-.129-.516-.152-.773-.008-.121,.027-.258,.035-.375,.012-.121,.023-.238,.035-.355,.02-.23,.051-.457,.07-.684,.102-1.074,.195-2.148,.254-3.227,.02-.344,.039-.688,.055-1.031,.012-.207-.004-.426,.027-.625,.055-.32,.18-.645,.27-.953,.273-.934,.605-1.867,1.023-2.742,.062-.133,.129-.266,.199-.395h.082c.184,0,.34-.047,.516-.141,.086-.047,.16-.098,.25-.141,.188-.086,.383-.16,.574-.246,.051-.023,.105-.059,.16-.07,.117-.027,.289,0,.41,.012,.164,.02,.32,.043,.488,.039,.336-.008,.668-.109,.984-.215,1.289-.426,2.324-1.32,3.285-2.246,.027-.027,.055-.055,.086-.082,.844-.137,1.746-.242,2.703-.32,9.602-8.113,23.352-6.25,34.656-3.391,.152-.516,.328-.973,.523-1.387,.543,.062,1.082,.121,1.625,.164,2.129,.184,4.254,.215,6.387,.176,.004,.039,.008,.082,.016,.125,.086,.625,.324,1.293,.789,1.742,.434,.418,1.023,.547,1.578,.297,.211-.098,.449-.105,.68-.113,.48-.02,.957-.004,1.438,.027,1.051,.066,2.102,.176,3.148,.309,2.117,.266,4.242,.559,6.371,.719,1.004,.074,2.004,.156,3.012,.184,.961,.023,1.906-.031,2.863-.098,.293-.023,.59-.066,.887-.055,.25,.008,.496,.031,.746,.047,.406,.023,.75,.062,1.121-.129,.215-.113,.402-.273,.566-.445,.086-.086,.16-.18,.223-.281l.082,.023c.965,.234,1.938,.426,2.914,.609,2.02,.371,4.055,.512,6.105,.512,.75-.02,1.492-.074,2.234-.129,.199,.293,.473,.531,.797,.676,.512,.23,1.09,.238,1.641,.246,1.352-.023,2.695-.18,4.039-.312,.613-.062,1.227-.121,1.84-.191,.094-.012,.188-.023,.281-.031,.055-.027,.098-.02,.133,.016,.098,.055,.203,.09,.312,.113,.043,.008,.086,.02,.125,.027,.348,.055,.727-.035,1.066-.094,.711-.121,1.418-.273,2.121-.426,.668-.148,1.344-.242,2.016-.371,.594-.113,1.188-.227,1.781-.344,.277-.055,.559-.105,.836-.16,.086-.02,.168-.035,.25-.055,.074-.047,.121-.027,.137,.059,.129,.207,.293,.395,.484,.543,.379,.293,.793,.383,1.262,.398,.254,.008,.504,0,.754-.02,.512-.039,1.023-.082,1.531-.145,1.023-.129,2.039-.293,3.055-.469,1.996-.344,3.984-.707,5.98-1.039,2.043-.34,4.086-.68,6.133-.984,1.02-.152,2.039-.297,3.055-.457,.262-.043,.527-.102,.789-.109,.23-.008,.465-.016,.695-.027,.477-.023,.957-.027,1.434-.043,.094-.004,.188-.008,.285-.008,.059,.129,.137,.254,.238,.359,.281,.301,.641,.301,1.027,.332,1.172,.09,2.344,.195,3.516,.301,2.113,.191,4.23,.387,6.352,.547,.648,.047,1.297,.098,1.945,.148,2.098,.301,4.195,.629,6.289,.984,7.254,.73,13.902,2.82,20.133,5.809l.008,.004c.363,.324,.723,.652,1.086,.977,.188,.164,.371,.328,.555,.5,.109,.098,.223,.188,.328,.289,.062,.055,.16,.113,.203,.184-.043,.141-.07,.281-.086,.43-.016,.16-.016,.324,.004,.488,.027,.195,.086,.375,.18,.551,.168,.316,.414,.531,.68,.766,.324,.281,.652,.562,.98,.84,1.637,1.371,3.32,2.688,4.996,4.016,.867,.684,1.746,1.355,2.621,2.023,.672,.512,1.371,1.004,2.008,1.562,1.652,1.441,3.289,2.906,4.891,4.406,1.695,1.582,3.379,3.176,5.02,4.812,.832,.832,1.656,1.672,2.484,2.512,.445,.449,.898,.898,1.332,1.363,.211,.223,.418,.449,.621,.68,.109,.121,.203,.246,.34,.34,.191,.129,.398,.168,.621,.203,.281,0,.543-.043,.793-.121,.617,.609,1.234,1.211,1.879,1.789,.324,.289,.652,.57,.965,.871,.328,.316,.629,.66,.945,.988,.727,.758,1.449,1.516,2.18,2.27,1.426,1.469,2.953,2.836,4.512,4.164,.797,.68,1.613,1.344,2.453,1.969,.863,.645,1.742,1.266,2.629,1.883,.883,.617,1.797,1.191,2.715,1.758,.195,.121,.414,.227,.582,.379,.188,.172,.379,.344,.57,.512l1.242,1.09c.797,.699,1.609,1.387,2.445,2.035,.832,.648,1.699,1.242,2.578,1.824,1.607,1.067,3.303,2.036,5.032,2.903,.556,.343,1.115,.681,1.691,.995,.062,.031,.125,.066,.188,.102,.059,.031,.117,.066,.176,.098,.023,.066,.059,.129,.102,.188,.031,.047,.059,.094,.086,.141,.125,.172,.273,.332,.426,.48,.484,.469,1.031,.875,1.59,1.25,.719,.477,1.449,.941,2.195,1.375,1.879,1.082,3.812,2.066,5.777,2.98,.079,.037,.159,.073,.238,.11,.36,.289,.722,.578,1.086,.866,4.805,4.145,10.527,7.375,14.883,11.969,3.098,3.949-.406,10.141-5.41,9.355-22.602-7.988-41.191-24.363-60.84-37.668-3.898,2.891-8.023-.602-10.609-3.598-3.211-3.098-6.316-6.305-9.668-9.254-3.379,8.598-12.188,1.586-17.117-1.539,.754,1.418,.918,3.129,.32,4.707,4.312,3.055,10.977,4.348,13.145,9.559,1.363,4.512-3.512,8.672-7.781,6.828-3.582-1.508-6.859-3.695-10.246-5.598-.617,.301-1.285,.5-1.969,.57,2.5,2.145,5.02,4.262,7.57,6.352,3.992-3.215,8.555,.223,11.738,2.898,3.746,2.918,7.492,5.84,11.289,8.684,2.793-.473,5.188,1.359,6.766,3.48,3.285,1.508,3.965,5.609,2.516,8.664,5.039,2.297,5.977,9.648,.203,11.59,6.383,5.879-.988,14.223-8.016,9.613-.062,.137-.129,.277-.195,.414,2.742,2.254,3.164,6.805,.277,9.098,3.363,3.766-.008,9.453-4.418,9.453-.723,0-1.469-.152-2.223-.492Zm-81.758-61.793l.43,.441c-.055-.188-.105-.379-.152-.566-.094,.043-.184,.086-.277,.125Z" fill="#c2f1e9"/>
        <path d="M157.217,150.019c-5.219-.352-10.449-.895-15.648-1.672-.074-.078-.152-.152-.238-.211-.195-.137-.391-.172-.617-.207-.129-.023-.059,.035-.152-.133-.113-.199-.234-.395-.336-.602-.23-.469-.371-.973-.691-1.398-.293-.391-.656-.719-1.059-.992-.949-.648-2.062-1.098-3.125-1.512-1.039-.406-2.109-.734-3.191-1.004-.668-.168-1.34-.332-2.016-.461-.297-.059-.59-.117-.883-.168-.062-.012-.16-.023-.219-.043-.168-.059-.344-.203-.504-.285-1.02-.547-2.031-1.109-3.043-1.672-.953-.531-1.93-1.012-2.895-1.512-.93-.48-1.848-.992-2.77-1.488-2.105-1.129-4.328-2.016-6.484-3.039-1.117-.531-2.207-1.117-3.336-1.625-1.191-.535-2.422-1.004-3.691-1.316-.383-.094-.766-.18-1.148-.25-.246-.047-.484-.059-.711-.156-.543-.238-1.09-.469-1.641-.684-1.113-.438-2.242-.84-3.387-1.188-1.23-.375-2.473-.672-3.734-.91-1.051-.199-2.117-.316-3.172-.477-1.188-.184-2.336-.477-3.496-.762-1.113-.277-2.23-.551-3.332-.859-.34-.098-.68-.199-1.016-.301-1.539-1.141-3.414-1.77-5.168-2.664-1.52-1.066-3.156-1.969-4.703-3-1.504-1.004-3.031-1.965-4.535-2.965-.621-.414-1.254-.812-1.867-1.23-.492-.34-.996-.66-1.48-1.008-.172-.125-.352-.273-.539-.367-.074-.035-.148-.059-.227-.074-12.633-9.594-23.391-21.629-34.824-32.73-.645-.805-1.262-1.629-1.922-2.414-.68-.801-1.418-1.547-2.082-2.355-.332-.402-.656-.805-.953-1.227-.328-.465-.633-.941-.957-1.402-.566-.805-1.199-1.559-1.848-2.297-.578-.656-1.152-1.309-1.715-1.969-.402-.473-.828-.926-1.316-1.312-.242-.191-.496-.359-.754-.527-.168-.105-.348-.18-.535-.227-.223-.23-.441-.469-.664-.699-.098-.105-.195-.211-.293-.312-.113-.117-.066-.055-.051-.219,.016-.168-.035-.336-.094-.488-.16-.414-.438-.789-.695-1.145-.262-.359-.531-.711-.812-1.055-.273-.34-.551-.672-.824-1.008-.066-.082-.148-.156-.207-.246l-.047-.109c-.035-.082-.07-.164-.023-.062-.086-.188-.172-.375-.262-.559-.371-.77-.754-1.527-1.199-2.258-.922-1.512-2.004-2.91-3.059-4.328-.156-.211-.32-.418-.484-.621l-.223-.281c-.086-.109-.133-.254-.191-.379-.188-.406-.375-.816-.57-1.219-.473-.98-.961-1.961-1.48-2.918-.121-.223-.262-.449-.359-.68-.082-.191-.148-.391-.227-.582-.172-.422-.348-.84-.535-1.254-.219-.484-.398-.988-.59-1.48-.199-.52-.402-1.039-.602-1.559-.379-.996-.762-1.988-1.152-2.977-.223-.566-.43-1.137-.656-1.695-.172-.426-.301-.855-.434-1.293-.625-2.051-1.141-4.137-1.598-6.227-.062-.281-.121-.562-.18-.844-.051-.254-.129-.516-.152-.773-.008-.121,.027-.258,.035-.375,.012-.121,.023-.238,.035-.355,.02-.23,.051-.457,.07-.684,.102-1.074,.195-2.148,.254-3.227,.02-.344,.039-.688,.055-1.031,.012-.207-.004-.426,.027-.625,.055-.32,.18-.645,.27-.953,.273-.934,.605-1.867,1.023-2.742,.062-.133,.129-.266,.199-.398h.082c.184,0,.336-.043,.516-.141,.086-.047,.16-.098,.25-.141,.188-.086,.383-.16,.574-.246,.051-.023,.105-.059,.16-.07,.117-.027,.289,0,.41,.012,.164,.02,.32,.043,.488,.039,.336-.008,.668-.109,.984-.215,1.289-.426,2.324-1.32,3.285-2.246,.977-.938,1.926-1.906,2.883-2.863,.082-.082,.184-.223,.281-.281,.133-.086,.336-.121,.484-.172,.305-.102,.605-.207,.906-.312,.656-.219,1.312-.445,1.969-.656,2.086-.672,4.18-1.355,6.305-1.91,.281-.074,.566-.18,.855-.215,.238-.027,.48-.055,.719-.078,.52-.051,1.043-.109,1.562-.168,.562-.062,1.129-.117,1.691-.172,.5-.047,.992-.07,1.496-.09,1.145-.043,2.293-.062,3.438-.074,.316-.004,.641-.023,.957-.016,.246,.008,.492,.043,.738,.066,.586,.055,1.172,.129,1.758,.188,2.375,.246,4.734,.645,7.102,.945,2.145,.273,4.293,.609,6.449,.793,2.125,.184,4.25,.219,6.383,.176,.004,.043,.008,.086,.016,.129,.086,.625,.324,1.293,.789,1.742,.434,.418,1.023,.547,1.578,.297,.211-.098,.449-.105,.68-.113,.48-.02,.957-.004,1.438,.027,1.051,.066,2.102,.176,3.148,.309,2.117,.266,4.242,.559,6.371,.719,1.004,.074,2.004,.156,3.012,.184,.961,.023,1.906-.031,2.863-.098,.293-.023,.59-.066,.887-.055,.25,.008,.496,.031,.746,.047,.406,.023,.75,.062,1.121-.129,.215-.113,.402-.273,.566-.445,.086-.086,.16-.18,.223-.281l.082,.023c.965,.234,1.938,.426,2.914,.609,2.02,.371,4.055,.512,6.105,.512,.746-.02,1.492-.074,2.234-.129,.199,.293,.469,.531,.797,.676,.512,.23,1.09,.238,1.641,.246,1.352-.023,2.695-.18,4.039-.312,.613-.062,1.227-.121,1.84-.191,.094-.012,.188-.023,.281-.031,.055-.027,.098-.02,.133,.016,.098,.055,.203,.09,.312,.113,.043,.008,.086,.02,.125,.027,.348,.055,.727-.035,1.066-.094,.711-.121,1.418-.273,2.121-.426,.668-.148,1.344-.242,2.016-.371,.594-.113,1.188-.227,1.781-.344,.277-.055,.559-.105,.836-.16,.086-.02,.168-.035,.25-.055,.074-.047,.121-.027,.137,.059,.129,.207,.293,.395,.484,.543,.379,.293,.793,.383,1.262,.398,.254,.008,.504,0,.754-.02,.512-.039,1.023-.082,1.531-.145,1.023-.129,2.039-.293,3.055-.469,1.996-.344,3.984-.707,5.98-1.039,2.043-.34,4.086-.68,6.133-.984,1.02-.152,2.039-.297,3.055-.457,.262-.043,.527-.102,.789-.109,.23-.008,.465-.016,.695-.027,.477-.023,.957-.027,1.434-.043,.098-.004,.191-.004,.285-.008,.062,.133,.141,.254,.238,.359,.281,.301,.641,.301,1.027,.332,1.172,.09,2.344,.195,3.516,.301,2.113,.191,4.23,.387,6.352,.547,2.098,.156,4.203,.316,6.301,.516,.543,.051,1.09,.086,1.637,.145,.531,.055,1.062,.148,1.594,.23,1.027,.156,2.062,.324,3.102,.379,.035,.004,.066,.004,.102,.004,.203,0,.395-.023,.59-.102,.297-.121,.559-.336,.77-.578,.242-.273,.434-.598,.566-.945,5.105,2.328,10.031,5.172,14.836,8.301,.176,.156,.352,.312,.523,.473,.109,.098,.223,.188,.328,.289,.062,.055,.16,.113,.203,.184-.043,.141-.07,.281-.086,.43-.016,.16-.016,.324,.004,.488,.027,.195,.086,.375,.18,.551,.168,.316,.414,.531,.68,.766,.324,.281,.652,.562,.98,.84,1.637,1.371,3.32,2.688,4.996,4.016,.867,.684,1.746,1.355,2.621,2.023,.672,.512,1.371,1.004,2.008,1.562,1.652,1.441,3.289,2.906,4.891,4.406,1.695,1.582,3.379,3.176,5.02,4.812,.832,.832,1.656,1.672,2.484,2.512,.445,.449,.898,.898,1.332,1.363,.211,.223,.418,.449,.621,.68,.109,.121,.203,.246,.34,.34,.191,.129,.398,.168,.621,.203,.277,0,.539-.039,.793-.121,.613,.609,1.23,1.215,1.879,1.793,.324,.289,.652,.57,.965,.871,.328,.316,.629,.66,.945,.988,.727,.758,1.449,1.516,2.18,2.27,1.426,1.469,2.953,2.836,4.512,4.164,.797,.68,1.613,1.344,2.453,1.969,.863,.645,1.742,1.266,2.629,1.883,.883,.617,1.797,1.191,2.715,1.758,.195,.121,.414,.227,.582,.379,.188,.172,.379,.344,.57,.512l1.242,1.09c.797,.699,1.609,1.387,2.445,2.035,.832,.648,1.699,1.242,2.578,1.824,1.617,1.074,3.324,2.051,5.066,2.922,.543,.336,1.094,.664,1.656,.973,.062,.031,.125,.066,.188,.102,.059,.031,.117,.066,.176,.098,.023,.066,.059,.129,.102,.188,.031,.047,.059,.094,.086,.141,.125,.172,.273,.332,.426,.48,.484,.469,1.031,.875,1.59,1.25,.719,.477,1.449,.941,2.195,1.375,1.879,1.082,3.812,2.066,5.777,2.98,1.707,.793,3.43,1.551,5.172,2.258,1,.402,2,.797,3.012,1.164,.82,.297,1.648,.566,2.477,.844,.469,.152,.941,.293,1.414,.426,.219,.059,.461,.105,.676,.184,.258,.098,.508,.242,.758,.359,.973,.453,1.996,.836,3.008,1.195,1,.348,2.004,.684,3.02,.977,.516,.145,1.031,.305,1.547,.445,.188,.051,.383,.086,.559,.164,.266,.109,.531,.223,.793,.336,1.438,.609,2.887,1.215,4.367,1.719,1.879,.637,3.77,1.207,5.707,1.621,1.082,.227,2.172,.418,3.266,.578,.047,.008,.09,.012,.137,.016,.059,.094,.125,.176,.199,.258,.129,.133,.273,.242,.426,.344,.324,.215,.668,.402,1.02,.562,.473,.211,.949,.41,1.43,.598,1.02,.398,2.066,.707,3.109,1.027,.566,.172,1.152,.312,1.73,.445,.398,.09,.797,.184,1.199,.262,2.148,.418,4.328,.691,6.52,.691,.715-.02,1.43-.023,2.145-.066,.234-.016,.453-.035,.688-.02,.211,.008,.422,.02,.629,.031,.301,.27,.637,.484,1.027,.637s.789,.254,1.203,.324c.41,.074,.824,.137,1.238,.18,1.039,.117,2.078,.152,3.125,.152,2.113,0,4.246-.316,6.285-.883,2.031-.562,3.957-1.395,5.852-2.312,.926-.449,1.828-.941,2.734-1.438,.469-.254,.926-.527,1.391-.789,.117-.062,.312-.207,.441-.25,.219-.07,.453-.117,.68-.176,.918-.238,1.805-.586,2.688-.941,1.016-.41,2.004-.887,2.98-1.383,.941-.477,1.863-.996,2.773-1.535,.961-.566,1.875-1.207,2.781-1.859,.473-.34,.934-.699,1.387-1.066,.117-.094,.238-.191,.359-.289,.102-.082,.191-.184,.301-.254,.191-.121,.41-.211,.613-.312,.926-.461,1.875-.863,2.77-1.387,.91-.531,1.781-1.16,2.648-1.766,.816-.57,1.613-1.18,2.34-1.871,.855-.816,1.59-1.754,2.371-2.641,.695-.789,1.309-1.629,1.91-2.492,1.184-1.695,2.242-3.477,3.273-5.273,.625-1.086,1.27-2.16,1.695-3.348,.695-1.938,.441-4.227-.805-5.891-.781-1.039-2.035-1.801-3.27-2.184-.488-.148-.996-.227-1.488-.359-.539-.141-1.086-.242-1.633-.324-.512-.074-1.027-.137-1.539-.199-.562-.066-1.121-.152-1.688-.191-.707-.047-1.418-.027-2.125,.047-4.695-.84-10.141-.168-14.312-2.422-.301-.133-.598-.27-.883-.41-.113-.129-.203-.262-.305-.414-1.047-1.566-2.043-3.168-2.973-4.805-.156-.277-.305-.555-.449-.832-.117-.227-.254-.449-.355-.68-.191-.438-.332-.895-.5-1.336-.195-.512-.359-1.035-.535-1.555-.152-.453-.34-.914-.406-1.383-.137-.949-.199-1.91-.32-2.863-.133-1.059-.309-2.113-.516-3.16-.438-2.219-1.023-4.418-1.855-6.52-.133-.34-.273-.676-.418-1.012-.176-.418-.316-.848-.465-1.277-.352-1.02-.738-2.027-1.141-3.023-.41-1.016-.859-2.012-1.309-3.004-.426-.945-.875-1.883-1.367-2.793-.496-.91-1.008-1.824-1.594-2.68-.289-.426-.574-.848-.871-1.266-.312-.441-.609-.965-1.043-1.293-.078-.055-.156-.109-.234-.16-.012-.059-.023-.113-.031-.172-.02-.113-.035-.227-.055-.336-.043-.262-.086-.52-.125-.777-.07-.484-.141-.973-.203-1.457-.141-1.07-.254-2.145-.328-3.219-.043-.59-.07-1.18-.098-1.77-.004-.082-.012-.16-.004-.238,.012-.137,.078-.305,.113-.438,.066-.262,.141-.52,.203-.781,.074-.301,.156-.594,.23-.891,.051-.211,.207-.391,.332-.566,.309-.438,.633-.859,.957-1.285,.059-.074,.113-.148,.172-.223,.422-.016,.852,.012,1.277,.078,.004,.027,.008,.055,.012,.07,.082,.242,.277,.449,.426,.652,.309,.422,.637,.836,.973,1.238,.027,.031,.121,.137,.137,.172,0,.129,.02,.25,.066,.371,.031,.055,.059,.113,.09,.172,.125,.195,.27,.375,.391,.578,.574,.953,.949,2.004,1.445,2.996,.109,.215,.215,.434,.328,.648,.039,.074,.137,.184,.152,.266-.027,.082-.055,.164-.086,.246-.012,.066-.027,.133-.039,.203-.074,.664,.473,1.184,.898,1.621,.738,.754,1.473,1.512,2.285,2.188,.398,.328,.812,.641,1.242,.926,.199,.133,.41,.25,.613,.379,.227,.141,.434,.32,.656,.469,.367,.242,.793,.441,1.23,.5,.184,.016,.363,.02,.547,.008,.047-.008,.094-.016,.137-.023,.121,.031,.25,.117,.363,.168,.402,.176,.812,.336,1.23,.48,.984,.336,2,.586,3.035,.707,.613,.07,1.246,.09,1.863,.062,.074-.004,.18-.027,.254-.016,.113,.02,.223,.07,.332,.102,.18,.051,.355,.105,.535,.16,.621,.184,1.238,.387,1.863,.555,.801,.215,1.598,.379,2.418,.5,.754,.113,1.52,.176,2.277,.258,.945,.098,1.891,.219,2.828,.363,.906,.137,1.809,.273,2.695,.516,1.691,.461,3.293,1.184,4.906,1.863,1.094,.461,2.176,.953,3.258,1.449,.59,.27,1.18,.535,1.762,.82,.109,.051,.219,.102,.328,.156,.133,.062,.309,.121,.426,.203,.141,.098,.258,.227,.383,.344,1.41,1.312,2.816,2.633,4.164,4.012,.77,.781,1.559,1.543,2.324,2.332,.785,.805,1.531,1.645,2.289,2.477,.703,.773,1.434,1.551,1.969,2.453,.566,.957,1.008,1.961,1.379,3.012,.191,.547,.359,1.09,.453,1.664,.09,.543,.25,1.074,.461,1.586,.211,.508,.418,1.02,.57,1.551,.07,.238,.137,.477,.199,.719,.066,.262,.113,.535,.211,.789,.188,.477,.594,.844,1.113,.906,.391,.043,.773-.078,1.094-.285,.246,3.988-.219,8.023-1.395,11.801,.832,2.699-.387,5.773-1.203,8.418-.582,1.902-1.16,3.84-1.77,5.777-.508,.496-.984,1.023-1.418,1.582-.734,.949-1.375,1.941-1.961,2.988-.078,.137-.141,.289-.23,.418-.059,.031-.113,.074-.156,.129-.043,.051-.086,.105-.125,.156-.145,.219-.258,.465-.387,.695-.254,.453-.504,.914-.742,1.375-.477,.918-.949,1.84-1.426,2.758-1.922,3.703-3.746,7.461-5.727,11.133-.391,.719-.781,1.438-1.168,2.156-.035,.027-.07,.059-.105,.086-9.738,16.117-25.113,26.781-43.727,29.852-1.887,1.074-3.793,2.102-5.715,3.086-.746,.152-1.488,.312-2.227,.496-1.242,.309-2.453,.711-3.637,1.199-1.227,.508-2.402,1.121-3.582,1.719-.609,.309-1.215,.621-1.828,.918-.477,.234-.949,.512-1.465,.648-1.309,.359-2.625,.699-3.938,1.051-2.484,.672-4.949,1.422-7.418,2.148-1.242,.367-2.484,.734-3.727,1.098-.051,.015-.102,.03-.153,.045-.096-.018-.189-.031-.276-.037-.281-.02-.566,.023-.848,.047-.254,.02-.508,.035-.766,.051-1.02,.07-2.031,.117-3.043,.289-1.141,.191-2.281,.414-3.395,.734-1.168,.336-2.309,.762-3.469,1.125-2.082,.648-4.184,1.281-6.336,1.664-1.133,.203-2.27,.379-3.395,.629-1.055,.234-2.102,.508-3.164,.723-1.066,.219-2.133,.422-3.227,.438-1.156,.016-2.301,.094-3.449,.254-.469,.066-.93,.164-1.391,.277-.719,.18-1.441,.352-2.129,.637-.395,.164-.77,.383-1.164,.551-.344,.148-.695,.266-1.043,.406-.078,.032-.159,.066-.241,.103-.514,.037-1.027,.076-1.541,.116-2.266,.172-4.535,.301-6.809,.371-.309,.012-.602-.004-.91-.027-.176-.012-.336-.023-.504,.051-.09,.043-.156,.105-.238,.145l-.031,.015c-.22-.011-.44-.003-.661-.027-.266-.027-.508-.133-.777-.152-.664-.047-1.488,.117-1.852,.734-.332,.57,.02,1.297,.262,1.836,.017,.037,.034,.073,.052,.11-8.051,.753-16.119,1.251-24.142,1.605-4.102,.25-8.207,.504-12.312,.73-.566-.77-1.16-1.551-1.934-2.117-.586-.434-1.285-.656-2.023-.613-.512,.027-1.023,.109-1.531,.191-.551,.086-1.109,.16-1.66,.262-.535,.094-1.066,.203-1.605,.297-.59,.102-1.188,.16-1.785,.23-.242,.027-.488,.055-.73,.105-.207,.039-.402,.117-.609,.164-.086,.02-.102,.016-.211,.016-.992-.031-1.984-.078-2.98-.078-1.008,0-2.023-.027-3.02-.199-.461-.082-.918-.199-1.367-.328-.535-.156-1.051-.375-1.586-.523-.582-.168-1.211,.027-1.746,.27-.605,.273-1.148,.719-1.539,1.258-.402,.555-.598,1.207-.48,1.855-2.793-.008-5.582-.062-8.371-.172Zm-38.059-40.797c6.02,.895,11.637,3.32,17.168,5.742,5.055,2.211,10.078,4.465,15.246,6.402-1.707-9.18,10.613-10.113,16.863-12.102-.082-.277-.145-.559-.184-.84-.086-.621-.059-1.305,.062-1.977-1.863-1.176-2.957-3.445-2.652-5.672,.203-1.5,.969-2.758,2.055-3.633-.633-2.227,.074-4.801,1.715-6.441,.77-.77,1.688-1.316,2.684-1.711-6.23-1.613-17.562-6.031-10.805-13.832-7.672-2.43-26.855-5.238-21.082-17.043-3.293,.316-7.398,.738-9.258-2.648-1.133-1.93-1.074-4.668,.414-6.418,2.324-2.77,6.062-2.715,9.586-2.66,1.148,.016,2.273,.035,3.32-.043,10.672-.555,21.508-.484,31.973,1.941,12.332,2.59,22.641,10.082,32.234,17.883,5.875,2.188,11.688,4.535,17.395,7.141-12.039-9.641-25.238-17.656-37.328-27.215-15.449-12.148-32.176-26.008-52.543-27.547-10.672-.383-21.246,.969-31.828,2.32-10.996,1.406-21.996,2.812-33.109,2.273-10.379-.781-20.609-2.984-30.957-4.105-10.105-1.871-22.289-2.191-30.297,5.258-6.43,6.117,13.234,31.395,17.855,37.145,9.086,9.648,19.18,18.285,28.383,27.844,8.098,8.199,16.664,16.191,26.766,21.871,6.242-5.953,15.098,.426,22.125,1.656,1.848-3.262,5.215-4.184,8.68-4.184,1.887,0,3.805,.273,5.52,.594Z" fill="#c2f1e9"/>
        <path d="M353.872,74.22c-.789-1.754-.66-3.676-.059-5.453l.387-.668c.625-1.086,1.27-2.16,1.695-3.348,.207-.586,.332-1.203,.367-1.824,1.902-2.422,4.773-4.383,6.645-6.648-3.336-5.688,2.441-11.711,6.387-15.543,.191,.461,.375,.93,.516,1.41,.07,.238,.137,.477,.199,.719,.066,.262,.113,.535,.211,.789,.188,.477,.594,.844,1.113,.906,.449,.051,.895-.121,1.242-.395,.293-.234,.504-.531,.645-.863,.18-.07,.348-.172,.527-.285,.242-.152,.473-.312,.707-.473,1.676-1.168,3.238-2.48,4.848-3.73,.809-.625,1.613-1.258,2.449-1.848,.793-.559,1.613-1.078,2.445-1.574,.453-.27,.922-.516,1.387-.77,.199-.109,.41-.25,.625-.312,.242-.07,.504-.109,.75-.16,.535-.109,1.07-.211,1.605-.324,.496-.105,1-.227,1.504-.234,2.18-.023,4.355,.004,6.535,.043h.234c.191-.004,.387-.004,.574,.02,.203,.027,.406,.078,.605,.113,.539,.098,1.078,.184,1.613,.277,.344,.059,.688,.109,1.031,.164,.547,.086,1.102,.133,1.645,.242,2.113,.422,4.227,.82,6.344,1.219,2.035,.383,4.098,.645,6.16,.77,1.027,.062,2.051,.035,3.078-.02,.867-.047,1.723-.18,2.582-.324,.586-.098,1.176-.25,1.75-.402,.531-.141,1.059-.297,1.582-.461,1.078-.332,2.129-.742,3.16-1.191,.941-.406,1.852-.875,2.73-1.402,.508-.305,1-.637,1.496-.961,.504-.332,1.039-.617,1.41-1.105,.199-.262,.328-.535,.418-.852,.039-.137,.066-.133,.184-.207,.25-.16,.5-.32,.75-.477,.469-.293,.93-.605,1.383-.926,.25-.176,.5-.348,.75-.523,.074-.055,.156-.125,.238-.168,.094-.051,.234-.051,.34-.074,.555-.121,1.117-.23,1.664-.375,.367-.098,.738-.191,1.109-.281-.043,.203-.082,.406-.125,.605-.191,.898-.355,1.805-.488,2.715-.156,1.055-.359,2.086-.656,3.113-.078,.266-.172,.531-.27,.793-.059,.152-.113,.336-.207,.473-.09,.129-.234,.242-.34,.355-.074,.078-.145,.156-.219,.234-.184,.195-.363,.391-.547,.586-1.574,1.668-3.027,3.457-4.371,5.312-.664,.914-1.328,1.832-1.918,2.797-.184,.301-.363,.602-.527,.91-.066,.125-.109,.254-.215,.348-.105,.09-.207,.176-.309,.266-.391,.332-.77,.672-1.141,1.023-.797,.754-1.492,1.625-2.133,2.512-.66,.906-1.277,1.855-1.805,2.844-1.082,2.023-1.977,4.141-2.965,6.211-.141,.297-.285,.59-.426,.887-.113,.234-.215,.527-.398,.715-.359,.363-.715,.73-1.078,1.094-.754,.75-1.516,1.488-2.289,2.219-.762,.719-1.539,1.43-2.312,2.137-.312,.285-.625,.566-.938,.848-.137,.125-.273,.25-.41,.371-.164,.145-.32,.316-.496,.445-.176,.125-.379,.223-.566,.328l-.633,.352c-.305,.168-.613,.332-.922,.496-2.492,.629-4.98,1.254-7.473,1.867-2.117,.523-4.234,1.039-6.355,1.547-4.181,.243-8.401,.053-12.463-.427l-.029-.026c-.238-.207-.535-.344-.816-.48-.285-.137-.566-.273-.859-.395-.184-.074-.262-.285-.387-.434-.188-.227-.387-.422-.602-.617-.977-.883-2.25-1.355-3.516-1.641-1.121-.254-2.27-.359-3.414-.277-.332,.023-.664,.062-.988,.117-.277,.047-.543,.148-.812,.223-.297,.082-.664,.176-.875,.422-.082,.098-.039,.066-.191,.113-.121,.039-.242,.078-.359,.125-1.012,.383-1.914,1.016-2.723,1.723-.812,.707-1.574,1.484-2.234,2.336-.734,.949-1.375,1.941-1.961,2.988-.078,.137-.141,.289-.23,.418-.059,.031-.113,.074-.156,.129-.043,.051-.086,.105-.125,.156-.145,.219-.258,.465-.387,.695l-.048,.085c-1.542,.863-3.154,1.454-4.687,1.454-1.961,0-3.785-.965-5.168-3.559Z" fill="#c2f1e9"/>
        <path d="M230.324,174.183c-.738-.328-1.477-.664-2.195-1.039-.758-.398-1.512-.797-2.281-1.172-1.992-.977-3.984-1.957-6.078-2.695-.98-.348-1.977-.664-2.957-1.012-.934-.336-1.867-.668-2.801-1.008-.934-.344-1.863-.691-2.781-1.074-.723-.305-1.43-.637-2.141-.969-1.703-.805-3.34-1.762-4.949-2.738-1.707-1.039-3.352-2.18-5.008-3.293-.281-.191-.566-.383-.852-.574-.23-.16-.449-.305-.648-.508-.344-.355-.68-.719-1.023-1.074-.727-.766-1.426-1.551-2.125-2.34-1.402-1.594-2.637-3.305-3.895-5.008-.629-.855-1.27-1.758-2.133-2.391-.586-.434-1.285-.656-2.02-.613-.512,.027-1.023,.109-1.531,.191-.246,.039-.496,.078-.746,.113-3.816-7.133-5.754-15.941-5.242-27.129-6.801,5.965-11.055,15.742-8.902,24.746,.125,.863,.328,1.742,.57,2.629-.41-.137-.816-.297-1.234-.414-.582-.168-1.211,.027-1.746,.27-.605,.273-1.148,.719-1.539,1.258-.504,.695-.684,1.547-.332,2.348,.195,.438,.43,.848,.594,1.301,.164,.457,.34,.91,.52,1.359,.418,1.039,.93,2.02,1.504,2.98,.605,1.004,1.152,2.043,1.648,3.105,.383,.812,.727,1.664,.992,2.527,.211,.688,.383,1.387,.523,2.094-.891,.984-1.992,1.602-3.188,1.91-1.492-.699-3.027-1.316-4.551-1.922-.508-.203-1.016-.402-1.523-.598-.469-.184-.957-.34-1.414-.543-.969-.438-1.918-.926-2.871-1.391-1.832-.891-3.637-1.84-5.469-2.727-.281-.137-.562-.273-.844-.406-.215-.105-.352-.25-.527-.41-.43-.395-.855-.793-1.285-1.18-.426-.387-.852-.773-1.27-1.164-.359-.336-.688-.684-1.016-1.047-.832-.922-1.68-1.828-2.559-2.703-.828-.828-1.723-1.605-2.516-2.465-.188-.199-.359-.41-.539-.613-.191-.219-.379-.484-.617-.652-.195-.137-.391-.172-.617-.207-.129-.023-.059,.035-.152-.133-.113-.199-.234-.395-.336-.602-.23-.469-.371-.973-.691-1.398-.293-.391-.656-.719-1.059-.992-.418-.285-.867-.531-1.328-.754-2.098-3.059-3.824-6.352-5.035-9.879-2.355-6.836,4.457-13.344,10.062-7.496,1.023,1.312,1.355,3.051,1.082,4.66,3.016,7.914,9.773,13.688,16.297,18.762-3.109-9.434-1.492-19.375,3.094-28.031,3.906-7.559,20.102-25.742,26.863-12.438,2.867,13.293-2.371,21.523,7.066,35.508,.781-1.238,2.062-2.195,3.422-2.566,.539-.148,1.059-.223,1.57-.242,.254-6.043,7.371-8.805,12.309-6.078-.242-6.328,1.598-17.531,10.242-15.516,6.711,2.348,6.094,13.039,8.789,18.754,.57,1.613,1.23,3.188,1.945,4.742-1.113,.059-2.227,.109-3.344,.141-.309,.012-.602-.004-.91-.027-.176-.012-.336-.023-.504,.051-.09,.043-.156,.105-.238,.145-.012,.008-.023,.016-.039,.02-.215-.012-.43-.004-.648-.027-.266-.027-.508-.133-.777-.152-.664-.047-1.488,.117-1.852,.734-.332,.57,.02,1.297,.262,1.836,.223,.484,.504,.938,.781,1.391,.629,1.023,1.406,1.961,2.133,2.918,.727,.953,1.434,1.922,2.145,2.887,.703,.953,1.449,1.879,2.23,2.766,.058,.066,.116,.131,.175,.196,.181,.348,.365,.694,.552,1.038,.488,.91,.973,1.824,1.527,2.695,.945,1.48,1.984,2.918,2.781,4.492,.434,.867,.832,1.773,1.109,2.703,.262,.879,.449,1.773,.609,2.672,.027,.148,.051,.297,.074,.441,.012,.074,.062,.23,.047,.301-.008,.027-.352,.23-.391,.262-.117,.102-.219,.215-.305,.34-.141,.203-.195,.441-.32,.648-.113,.191-.246,.375-.379,.555-.258,.359-.555,.711-.902,.984-.312,.25-.73,.324-1.105,.434-.473,.141-.969,.207-1.453,.297-.559,.109-1.121,.223-1.68,.328-.259,.05-.521,.106-.78,.176-1.125-.386-2.235-.815-3.326-1.297Zm.27-9.18c.664,.242,1.328,.48,1.996,.715-.211-.512-.43-1.023-.656-1.527-.41,.324-.859,.598-1.34,.812Z" fill="#c2f1e9"/>
        <path d="M79.816,103.721c-2.027,.691-4.422,.289-5.949-1.348-.871-.93-1.742-1.863-2.613-2.797-1.512,.461-3.203,.336-4.566-.527-.699-.441-1.375-.922-2.035-1.426-.875,.832-2.008,1.402-3.234,1.605-4.152,.688-7.738-2.57-10.816-4.93-6.203,2.691-11.137-3.938-15.598-8.539-.484-.676-1-1.332-1.512-1.984-.699-.895-1.414-1.777-2.121-2.664-.656-.82-1.285-1.66-1.961-2.461-.68-.801-1.418-1.547-2.082-2.355-.332-.402-.656-.805-.953-1.227-.328-.465-.633-.941-.957-1.402-.566-.805-1.199-1.559-1.848-2.297-.578-.656-1.152-1.309-1.715-1.969-.402-.473-.828-.926-1.316-1.312-.242-.191-.496-.359-.754-.527-.164-.106-.34-.179-.523-.225-.226-.234-.447-.472-.672-.704-.098-.105-.195-.211-.293-.312-.113-.117-.066-.055-.051-.219,.016-.168-.035-.336-.094-.488-.16-.414-.438-.789-.695-1.145-.262-.359-.531-.711-.812-1.055-.273-.34-.551-.672-.824-1.008-.066-.082-.148-.156-.207-.246l-.047-.109c-.035-.082-.07-.164-.023-.062-.086-.188-.172-.375-.262-.559-.371-.77-.754-1.527-1.199-2.258-.922-1.512-2.004-2.91-3.059-4.328-.156-.211-.32-.418-.484-.621l-.223-.281c-.086-.109-.133-.254-.191-.379-.188-.406-.375-.816-.57-1.219-.473-.98-.961-1.961-1.48-2.918-.121-.223-.262-.449-.359-.68-.082-.191-.148-.391-.227-.582-.172-.422-.348-.84-.535-1.254-.219-.484-.398-.988-.59-1.48-.199-.52-.402-1.039-.602-1.559-.379-.996-.762-1.988-1.152-2.977-.223-.566-.43-1.137-.656-1.695-.172-.426-.301-.855-.434-1.293-.625-2.051-1.141-4.137-1.598-6.227-.062-.281-.121-.562-.18-.844-.051-.254-.129-.516-.152-.773-.008-.121,.027-.258,.035-.375,.012-.121,.023-.238,.035-.355,.02-.23,.051-.457,.07-.684,.102-1.074,.195-2.148,.254-3.227,.02-.344,.039-.688,.055-1.031,.012-.207-.004-.426,.027-.625,.055-.32,.18-.645,.27-.953,.052-.179,.107-.357,.164-.535,7.841-5.575,27.151,1.969,35.946,3.239,13.91,.695,23.035,9.074,32.25,18.574,8.711,8.73,17.359,17.523,26.457,25.855,1.27,1.168,2.633,2.262,3.84,3.496,4.125,3.977-.074,11.25-5.602,9.609,3.371,4.141,8.043,8.102,8.949,13.582,.461,7.477-7.555,7.57-12.535,4.906-.98,3.043-3.496,4.41-6.18,4.41-2.035,0-4.168-.785-5.809-2.227ZM35.105,38.338c.215,.051,.426,.105,.633,.172,.199-.586,.484-1.145,.855-1.652-1.848-.371-3.688-.801-5.52-1.234-1.922-.453-3.848-.879-5.777-1.293,.285,.355,.559,.719,.832,1.086,.121,.168,.246,.336,.367,.5,.656-.242,1.312-.348,1.969-.348,2.391,0,4.734,1.41,6.641,2.77Z" fill="#e1faf6"/>
        <path d="M178.307,147.945c-.938-.031-1.875-.074-2.812-.078-1.363-.215-2.727-.336-4.098-.402-.152-.039-.305-.082-.457-.125-.535-.156-1.051-.375-1.586-.523-.582-.168-1.211,.027-1.746,.27-.199,.09-.391,.195-.57,.32-.953,.012-1.906,.035-2.863,.059-2.094,.051-4.191,.102-6.289,.039-6.336-.234-12.695-.898-18.891-2.285-.164-.148-.336-.281-.52-.406-.949-.648-2.062-1.098-3.125-1.512-1.039-.406-2.109-.734-3.191-1.004-.668-.168-1.34-.332-2.016-.461-.297-.059-.59-.117-.883-.168-.062-.012-.16-.023-.219-.043-.168-.059-.344-.203-.504-.285-1.02-.547-2.031-1.109-3.043-1.672-.953-.531-1.93-1.012-2.895-1.512-.93-.48-1.848-.992-2.77-1.488-2.105-1.129-4.328-2.016-6.484-3.039-1.117-.531-2.207-1.117-3.336-1.625-1.191-.535-2.422-1.004-3.691-1.316-.383-.094-.766-.18-1.148-.25-.246-.047-.484-.059-.711-.156-.543-.238-1.09-.469-1.641-.684-1.113-.438-2.242-.84-3.387-1.188-1.23-.375-2.473-.672-3.734-.91-.32-.062-.645-.113-.969-.164-8.281-3.676-16.922-6.703-24.328-12.121-12.926-8.371-24.281-18.766-35.363-29.41-.496-.695-1.023-1.363-1.543-2.031-.699-.895-1.414-1.777-2.121-2.664-.656-.82-1.285-1.66-1.961-2.461-.68-.801-1.418-1.547-2.082-2.355-.332-.402-.656-.805-.953-1.227-.328-.465-.633-.941-.957-1.402-.566-.805-1.199-1.559-1.848-2.297-.578-.656-1.152-1.309-1.715-1.969-.402-.473-.828-.926-1.316-1.312-.242-.191-.496-.359-.754-.527-.164-.105-.34-.176-.523-.223-.227-.234-.449-.473-.672-.707-.098-.105-.195-.211-.293-.312-.113-.117-.066-.055-.051-.219,.016-.168-.035-.336-.094-.488-.16-.414-.438-.789-.695-1.145-.262-.359-.531-.711-.812-1.055-.273-.34-.551-.672-.824-1.008-.066-.082-.148-.156-.207-.246l-.047-.109c-.035-.082-.07-.164-.023-.062-.086-.188-.172-.375-.262-.559-.371-.77-.754-1.527-1.199-2.258-.922-1.512-2.004-2.91-3.059-4.328-.156-.211-.32-.418-.484-.621l-.223-.281c-.086-.109-.133-.254-.191-.379-.188-.406-.375-.816-.57-1.219-.473-.98-.961-1.961-1.48-2.918-.121-.223-.262-.449-.359-.68-.082-.191-.148-.391-.227-.582-.172-.422-.348-.84-.535-1.254-.219-.484-.398-.988-.59-1.48-.199-.52-.402-1.039-.602-1.559-.379-.996-.762-1.988-1.152-2.977-.223-.566-.43-1.137-.656-1.695-.172-.426-.301-.855-.434-1.293-.625-2.051-1.141-4.137-1.598-6.227-.062-.281-.121-.562-.18-.844-.051-.254-.129-.516-.152-.773-.008-.121,.027-.258,.035-.375,.012-.121,.023-.238,.035-.355,.02-.23,.051-.457,.07-.684,.102-1.074,.195-2.148,.254-3.227,.02-.344,.039-.688,.055-1.031,.012-.207-.004-.426,.027-.625,.055-.32,.18-.645,.27-.953,.273-.934,.605-1.867,1.023-2.742,.064-.134,.131-.267,.2-.397,.027,.002,.053,.003,.077,.003,.184,0,.34-.043,.516-.141,.086-.047,.16-.098,.25-.141,.188-.086,.383-.16,.574-.246,.051-.023,.105-.059,.16-.07,.117-.027,.289,0,.41,.012,.164,.02,.32,.043,.488,.039,.336-.008,.668-.109,.984-.215,1.001-.331,1.849-.944,2.628-1.635,3.564,1.816,5.097,6.837-.065,10.221-1.531,10.684,8.137,23.75,14.781,31.52-4.004-7.043-11.785-16.91-7.559-25.191,2.762-4.836,9.383-4.98,13.66-2.129,1.27-.645,2.785-.863,4.129-.422,1.672,.551,3.281,1.383,4.82,2.332,.559-1.293,1.488-2.469,2.699-3.199,.691-.414,1.391-.695,2.129-.891,7.18-7.391,21.273-1.957,29.477,1.281,9.168,3.824,16.668,10.664,23.813,17.387,4.383,4.203,8.535,8.633,12.758,12.992,2.969,1.613,5.996,3.164,8.816,5.031,5.809,.535,10.496,5.012,15.57,7.551,4.207,1.941,7.547,2.867,11.613,4.676,3.75-2.086,7.23,.957,9.242,3.98,12.895,4.406,14.129,8.254,20.586,19.219,8.805,10.809,7.277,12.672,7.586,25.809,.195,3.242,.816,6.484,2.258,9.418,1.148,2.07,2.898,3.859,2.883,6.383,.047,1.461-.414,2.672-1.191,3.617-.383-.141-.793-.203-1.215-.18-.512,.027-1.023,.109-1.531,.191-.551,.086-1.109,.16-1.66,.262-.535,.094-1.066,.203-1.605,.297-.59,.102-1.188,.16-1.785,.23-.242,.027-.488,.055-.73,.105-.207,.039-.402,.117-.609,.164-.062,.012-.086,.016-.137,.016h-.074Zm-6.211-12.078c.445,.027,.891,.059,1.332,.102-.062-.242-.121-.484-.18-.727-.367,.258-.754,.469-1.152,.625Zm-95.73-42.34c1.621,.473,3.094,1.344,4.574,2.145,.508,.281,1.02,.559,1.531,.836,.109-.184,.23-.363,.367-.539,.652-.84,1.57-1.484,2.586-1.867-.062-1.078,.168-2.18,.684-3.117-.312-.285-.621-.574-.922-.875-1.48-1.453-1.984-3.613-1.477-5.547-1.551-.812-2.914-1.984-4.27-3.098-3.297-.902-6.539-2.078-9.684-3.41-5.652,6.949-11.879-2.223-15.848-6.301,4.879,8.25,10.844,15.801,17.145,23,1.055-.914,2.434-1.441,3.82-1.441,.5,0,1.004,.07,1.492,.215ZM32.924,51.047c.02-.598,.109-1.188,.301-1.773-1.07-1.113-2.156-2.215-3.266-3.289,.938,1.719,1.934,3.402,2.965,5.062Z" fill="#e1faf6"/>
        <path d="M180.196,121.431c-5.092-2.253-3.946-7.138-1.68-11.109-4.524-3.668-9.316-6.989-13.663-10.875-3.957-3.545-12.369-8.199-7.188-14.168,4.8-4.81,9.648,1.37,13.231,4.261,4.545,4,9.413,7.589,14.172,11.324,3.211,2.306,6.901,5.534,5.809,9.933-.689,2.595-2.361,4.795-3.25,7.324-1.181,2.934-4.54,4.443-7.429,3.309Z" fill="#e1faf6"/>
        <path d="M218.66,136.587c-.926-2.547-2.34-4.863-3.57-7.266-1.496-3.422-3.625-6.551-5.109-9.953-1.422-4.191,3.129-8.5,7.234-7.059,3.094-1.309,6.199,.574,9.059,1.668,9.301,3.453,18.645,7.105,28.391,9.102,9.086,1.891,18.07,.523,27.082-.84,6.176-.934,12.363-1.867,18.609-1.754,3.102-.309,6.785-.379,8.543,2.723,.465,.777,.723,1.637,.785,2.504-.965,.234-1.934,.445-2.906,.641-1.281,.262-2.566,.512-3.836,.824-1.242,.309-2.453,.711-3.637,1.199-1.227,.508-2.402,1.121-3.582,1.719-.609,.309-1.215,.621-1.828,.918-.477,.234-.949,.512-1.465,.648-1.309,.359-2.625,.699-3.938,1.051-2.484,.672-4.949,1.422-7.418,2.148-1.242,.367-2.484,.734-3.727,1.098-.054,.016-.108,.031-.161,.047-.093-.018-.184-.03-.268-.035-.281-.02-.566,.023-.848,.047-.254,.02-.508,.035-.766,.051-1.02,.07-2.031,.117-3.043,.289-1.141,.191-2.281,.414-3.395,.734-1.168,.336-2.309,.762-3.469,1.125-2.082,.648-4.184,1.281-6.336,1.664-1.133,.203-2.27,.379-3.395,.629-1.055,.234-2.102,.508-3.164,.723-1.066,.219-2.133,.422-3.227,.438-1.156,.016-2.301,.094-3.449,.254-.469,.066-.93,.164-1.391,.277-.719,.18-1.441,.352-2.129,.637-.395,.164-.77,.383-1.164,.551-.344,.148-.695,.266-1.043,.406-.074,.031-.152,.064-.23,.098-.517,.037-1.034,.077-1.551,.117-2.266,.172-4.535,.301-6.809,.371-.309,.012-.602-.004-.91-.027-.176-.012-.336-.023-.504,.051-.09,.043-.156,.105-.238,.145-.013,.007-.026,.013-.039,.019-.218-.01-.435-.003-.653-.026-.266-.027-.508-.133-.777-.152-.664-.047-1.488,.117-1.852,.734-.324,.557,.003,1.263,.244,1.798-4.495-1.679-7.127-5.577-8.123-10.333Z" fill="#e1faf6"/>
        <path d="M230.324,174.187c-.738-.328-1.477-.664-2.195-1.039-.758-.398-1.512-.797-2.281-1.172-1.992-.977-3.984-1.957-6.078-2.695-.98-.348-1.977-.664-2.957-1.012-.934-.336-1.867-.668-2.801-1.008-.934-.344-1.863-.691-2.781-1.074-.711-.301-1.406-.625-2.102-.953-2.023-1.473-4.023-2.957-6.012-4.371-6.109-5.449-13.176-10.582-16.453-18.344-4.465-11.078-4.102-25.992,4.758-34.82,3.664-3.703,10.645-.996,10.156,4.402,.016,2.918-2.879,4.07-4.02,6.379-2.957,5.562-2.605,12.848-.688,18.711,1.816,4.902,6.066,8.062,9.789,11.473,4.012,3.922,8.703,6.984,13.375,10.039,3.344,2.133,6.539,4.746,10.363,5.949,2.234,.598,4.504,1.055,6.82,1.141,.947,.083,1.762,.334,2.449,.708,.217,.505,.411,1.019,.567,1.542,.262,.879,.449,1.773,.609,2.672,.027,.148,.051,.297,.074,.441,.012,.074,.062,.23,.047,.301-.008,.027-.352,.23-.391,.262-.117,.102-.219,.215-.305,.34-.141,.203-.195,.441-.32,.648-.113,.191-.246,.375-.379,.555-.258,.359-.555,.711-.902,.984-.312,.25-.73,.324-1.105,.434-.473,.141-.969,.207-1.453,.297-.559,.109-1.121,.223-1.68,.328-.262,.05-.526,.107-.786,.178-1.123-.386-2.231-.814-3.319-1.295Z" fill="#8cb8b1"/>
        <path d="M163.778,164.044c-.508-.203-1.016-.402-1.523-.598-.469-.184-.957-.34-1.414-.543-.969-.438-1.918-.926-2.871-1.391-1.832-.891-3.637-1.84-5.469-2.727-.281-.137-.562-.273-.844-.406-.215-.105-.352-.25-.527-.41-.43-.395-.855-.793-1.285-1.18-.426-.387-.852-.773-1.27-1.164-.359-.336-.688-.684-1.016-1.047-.832-.922-1.68-1.828-2.559-2.703-.828-.828-1.723-1.605-2.516-2.465-.188-.199-.359-.41-.539-.613-.191-.219-.379-.484-.617-.652-.195-.137-.391-.172-.617-.207-.129-.023-.059,.035-.152-.133-.113-.199-.234-.395-.336-.602-.23-.469-.371-.973-.691-1.398-.041-.054-.083-.108-.127-.16,1.037-3.33,5.006-5.504,9.322-2.477,6.391,3.145,11.219,8.191,17.016,11.957,3.959,2.8,2.808,7.615-.206,9.627-.586-.24-1.173-.475-1.759-.709Z" fill="#8cb8b1"/>
        <path d="M226.699,136.009c11.699-.777,23.477-2.934,34.805-6.094,21.16-6.309,41.648-14.113,61.059-24.242,11.523-6.691,20.469-16.707,28.547-27.137,4.762-6.406,9.328-13.188,16.297-17.414,9.457-6.195,13.918-5.133,19.191-4.07,4.031,.809,8.539,1.621,16.121-.809,6.02-1.348,9.48-6.672,13.32-11.008,3.328-3.617,6.84-7.062,10.004-10.812,.309-.125,.609-.254,.914-.383,.941-.406,1.852-.875,2.73-1.402,.508-.305,1-.637,1.496-.961,.504-.332,1.039-.617,1.41-1.105,.199-.262,.328-.535,.418-.852,.039-.137,.066-.133,.184-.207,.25-.16,.5-.32,.75-.477,.469-.293,.93-.605,1.383-.926,.25-.176,.5-.348,.75-.523,.074-.055,.156-.125,.238-.168,.094-.051,.234-.051,.34-.074,.555-.121,1.117-.23,1.664-.375,.371-.098,.742-.188,1.113-.277l-.129,.598c-.191,.898-.355,1.805-.488,2.715-.156,1.055-.359,2.086-.656,3.113-.078,.266-.172,.531-.27,.793-.059,.152-.113,.336-.207,.473-.09,.129-.234,.242-.34,.355-.074,.078-.145,.156-.219,.234-.184,.195-.363,.391-.547,.586-1.574,1.668-3.027,3.457-4.371,5.312-.664,.914-1.328,1.832-1.918,2.797-.184,.301-.363,.602-.527,.91-.066,.125-.109,.254-.215,.348-.105,.09-.207,.176-.309,.266-.391,.332-.77,.672-1.141,1.023-.797,.754-1.492,1.625-2.133,2.512-.66,.906-1.277,1.855-1.805,2.844-.719,1.352-1.359,2.746-2,4.137-1.234,1.352-2.453,2.715-3.648,4.098-9.223,9.379-24.637,11.438-36.93,7.934-.348,.039-.691,.09-1.027,.148-.727-.383-1.527-.637-2.324-.816-1.121-.254-2.27-.359-3.414-.277-.332,.023-.664,.062-.988,.117-.277,.047-.543,.148-.812,.223-.297,.082-.664,.176-.875,.422-.082,.098-.039,.066-.191,.113-.121,.039-.242,.078-.359,.125-1.012,.383-1.914,1.016-2.723,1.723-.812,.707-1.574,1.484-2.234,2.336-.734,.949-1.375,1.941-1.961,2.988-.078,.137-.141,.289-.23,.418-.059,.031-.113,.074-.156,.129-.043,.051-.086,.105-.125,.156-.145,.219-.258,.465-.387,.695-.254,.453-.504,.914-.742,1.375-.477,.918-.949,1.84-1.426,2.758-1.684,3.25-3.297,6.539-5.004,9.777-.332,.395-.672,.777-1.012,1.152-6.238,7.246-12.543,14.566-20.609,19.844-9.145,7.043-20.863,11.281-31.289,15.855-.25,.055-.5,.113-.75,.176-1.242,.309-2.453,.711-3.637,1.199-1.227,.508-2.402,1.121-3.582,1.719-.602,.305-1.199,.613-1.805,.906-.723,.285-1.445,.566-2.168,.844-1.082,.293-2.172,.578-3.258,.867-2.484,.672-4.949,1.422-7.418,2.148-1.242,.367-2.484,.734-3.727,1.098-.054,.016-.108,.031-.161,.047-.093-.018-.184-.03-.268-.035-.281-.02-.566,.023-.848,.047-.254,.02-.508,.035-.766,.051-1.02,.07-2.031,.117-3.043,.289-1.141,.191-2.281,.414-3.395,.734-1.168,.336-2.309,.762-3.469,1.125-2.082,.648-4.184,1.281-6.336,1.664-1.133,.203-2.27,.379-3.395,.629-1.055,.234-2.102,.508-3.164,.723-1.066,.219-2.133,.422-3.227,.438-1.156,.016-2.301,.094-3.449,.254-.469,.066-.93,.164-1.391,.277-.719,.18-1.441,.352-2.129,.637-.395,.164-.77,.383-1.164,.551-.344,.148-.695,.266-1.043,.406-.074,.031-.152,.064-.23,.098-.517,.037-1.034,.077-1.551,.117-2.266,.172-4.535,.301-6.809,.371-.309,.012-.602-.004-.91-.027-.176-.012-.336-.023-.504,.051-.09,.043-.156,.105-.238,.145-.013,.007-.026,.013-.039,.019-.218-.01-.435-.003-.653-.026-.266-.027-.508-.133-.777-.152-.664-.047-1.488,.117-1.852,.734-.332,.57,.02,1.297,.262,1.836,.047,.103,.097,.204,.149,.304-.445,.013-.891,.024-1.336,.032-5.93-1.727-5.18-10.746,1.086-11.285Zm6.168,4.656c-.25-1.336-.992-2.574-2.07-3.406,1.035,.84,1.785,2.035,2.07,3.406Z" fill="#8cb8b1"/>
        <path d="M141.743,147.146c-.582-.137-1.156-.281-1.73-.43-.133-.316-.266-.633-.477-.914-.293-.391-.656-.719-1.059-.992-.949-.648-2.062-1.098-3.125-1.512-1.039-.406-2.109-.734-3.191-1.004-.668-.168-1.34-.332-2.016-.461-.297-.059-.59-.117-.883-.168-.062-.012-.16-.023-.219-.043-.168-.059-.344-.203-.504-.285-1.02-.547-2.031-1.109-3.043-1.672-.953-.531-1.93-1.012-2.895-1.512-.93-.48-1.848-.992-2.77-1.488-2.105-1.129-4.328-2.016-6.484-3.039-1.117-.531-2.207-1.117-3.336-1.625-1.191-.535-2.422-1.004-3.691-1.316-.383-.094-.766-.18-1.148-.25-.246-.047-.484-.059-.711-.156-.543-.238-1.09-.469-1.641-.684-1.113-.438-2.242-.84-3.387-1.188-1.23-.375-2.473-.672-3.734-.91-1.051-.199-2.117-.316-3.172-.477-1.188-.184-2.336-.477-3.496-.762-1.113-.277-2.23-.551-3.332-.859-.75-.211-1.492-.445-2.238-.676-.102-.086-.23-.137-.367-.148-.039,0-.078,0-.117,.004-.094-.031-.184-.059-.277-.086-.18-.051-.359-.102-.539-.148-.121-.086-.242-.16-.359-.242-.219-.152-.441-.301-.66-.445-.223-.148-.426-.312-.633-.477-1.785-1.414-3.812-2.484-5.703-3.742-1.504-1.004-3.031-1.965-4.535-2.965-.621-.414-1.254-.812-1.867-1.23-.492-.34-.996-.66-1.48-1.008-.172-.125-.352-.273-.539-.367-.148-.074-.32-.102-.48-.09-.102,.004-.203,.023-.301,.055-.027-.023-.059-.047-.086-.07-1.57-1.238-3.145-2.465-4.805-3.574-.156-.105-.309-.211-.465-.312-.062-.043-.191-.117-.242-.164-.203-.184-.383-.402-.574-.598-.422-.426-.852-.848-1.281-1.262-.605-.582-1.219-1.16-1.844-1.723-.781-.707-1.547-1.43-2.328-2.133-.809-.727-1.633-1.426-2.473-2.113-.676-.555-1.379-1.07-2.082-1.582-.414-.305-.832-.598-1.254-.883-.199-.133-.41-.254-.594-.402-.184-.148-.34-.336-.508-.5-1.648-1.629-3.312-3.25-5.082-4.746-.867-.73-1.754-1.445-2.57-2.23-.121-.117-.246-.238-.363-.355-.109-.109-.203-.223-.328-.309-.094-.066-.195-.113-.305-.141-.055-.012-.105-.023-.16-.035-.078-.07-.133-.195-.191-.281-.309-.469-.617-.934-.918-1.402-.578-.91-1.16-1.816-1.762-2.707-.59-.875-1.246-1.707-1.895-2.535-.699-.895-1.414-1.777-2.121-2.664-.656-.82-1.285-1.66-1.961-2.461-.68-.801-1.418-1.547-2.082-2.355-.332-.402-.656-.805-.953-1.227-.328-.465-.633-.941-.957-1.402-.566-.805-1.199-1.559-1.848-2.297-.578-.656-1.152-1.309-1.715-1.969-.402-.473-.828-.926-1.316-1.312-.242-.191-.496-.359-.754-.527-.164-.105-.34-.18-.523-.227-.227-.234-.449-.473-.672-.703-.098-.105-.195-.211-.293-.312-.113-.117-.066-.055-.051-.219,.016-.168-.035-.336-.094-.488-.16-.414-.438-.789-.695-1.145-.262-.359-.531-.711-.812-1.055-.273-.34-.551-.672-.824-1.008-.066-.082-.148-.156-.207-.246l-.047-.109c-.035-.082-.07-.164-.023-.062-.086-.188-.172-.375-.262-.559-.371-.77-.754-1.527-1.199-2.258-.922-1.512-2.004-2.91-3.059-4.328-.156-.211-.32-.418-.484-.621l-.223-.281c-.086-.109-.133-.254-.191-.379-.188-.406-.375-.816-.57-1.219-.473-.98-.961-1.961-1.48-2.918-.121-.223-.262-.449-.359-.68-.082-.191-.148-.391-.227-.582-.172-.422-.348-.84-.535-1.254-.219-.484-.398-.988-.59-1.48-.199-.52-.402-1.039-.602-1.559-.379-.996-.762-1.988-1.152-2.977-.223-.566-.43-1.137-.656-1.695-.172-.426-.301-.855-.434-1.293-.625-2.051-1.141-4.137-1.598-6.227-.062-.281-.121-.562-.18-.844-.051-.254-.129-.516-.152-.773-.008-.121,.027-.258,.035-.375,.012-.121,.023-.238,.035-.355,.02-.23,.051-.457,.07-.684,.102-1.074,.195-2.148,.254-3.227,.02-.344,.039-.688,.055-1.031,.012-.207-.004-.426,.027-.625,.055-.32,.18-.645,.27-.953,.273-.934,.605-1.867,1.023-2.742,.064-.134,.131-.267,.2-.398,.027,.002,.054,.003,.081,.003,.18,0,.336-.047,.516-.141,.086-.047,.16-.098,.25-.141,.188-.086,.383-.16,.574-.246,.051-.023,.105-.059,.16-.07,.117-.027,.289,0,.41,.012,.164,.02,.32,.043,.488,.039,.336-.008,.668-.109,.984-.215,1.289-.426,2.324-1.32,3.285-2.246l.009-.008c2.312,1.745,2.736,5.156,1.425,8.215-.016,3.027,1.062,5.934,1.977,8.781,5.621,17.188,16.309,32.047,28.004,45.625,13.379,14.785,29.293,27.336,46.969,36.586,11.797,5.547,24.07,10.035,36.516,13.895,7.105,2.375,14.066,5.262,21.449,6.707,10.324,2.082,20.895,2.352,31.387,1.742,2.711-.008,5.23-1.957,7.906-.684,3.801,1.426,4.5,6.742,1.875,9.402-.43-.188-.902-.277-1.387-.25-.512,.027-1.023,.109-1.531,.191-.551,.086-1.109,.16-1.66,.262-.535,.094-1.066,.203-1.605,.297-.59,.102-1.188,.16-1.785,.23-.242,.027-.488,.055-.73,.105-.207,.039-.402,.117-.609,.164-.086,.02-.102,.016-.211,.016-.992-.031-1.984-.078-2.98-.078-1.008,0-2.023-.027-3.02-.199-.461-.082-.918-.199-1.367-.328-.535-.156-1.051-.375-1.586-.523-.582-.168-1.211,.027-1.746,.27-.605,.273-1.148,.719-1.539,1.258-.367,.504-.559,1.09-.508,1.68-8.004-.223-16.008-1.121-23.816-2.875Z" fill="#8cb8b1"/>
        <path d="M165.556,145.034c-2.672-.145-5.75-.258-7.762-2.289-.769-.776-1.316-1.707-1.609-2.703-6.353,1.551-23.491,8.81-24.391-1.992,.368-6.656,6.498-5.379,11.188-6.314,8.486-1.771,16.99-4.911,23.794-10.392,7.701-6.395,17.406-24.215,29.064-16.588,5.448,6.125-3.771,14.2-5.923,20.206-5.293,12.642-8.704,20.835-24.362,20.071Z" fill="#8cb8b1"/>
        <path d="M317.422,18.302c-1.917-1.862-4.135-3.718-5.977-5.807-.013-.081-.025-.161-.039-.24-.043-.262-.086-.52-.125-.777-.07-.484-.141-.973-.203-1.457-.141-1.07-.254-2.145-.328-3.219-.043-.59-.07-1.18-.098-1.77-.004-.082-.012-.16-.004-.238,.012-.137,.078-.305,.113-.438,.066-.262,.141-.52,.203-.781,.074-.301,.156-.594,.23-.891,.051-.211,.207-.391,.332-.566,.309-.438,.633-.859,.957-1.285,.105-.141,.207-.277,.316-.41,.07-.09,.141-.242,.234-.305,.113-.074,.367,.121,.473,.176,.059,.027,.332,.145,.379,.207,.035,.047,.039,.199,.059,.258,.082,.242,.277,.449,.426,.652,.309,.422,.637,.836,.973,1.238,.027,.031,.121,.137,.137,.172,0,.129,.02,.25,.066,.371,.031,.055,.059,.113,.09,.172,.125,.195,.27,.375,.391,.578,.574,.953,.949,2.004,1.445,2.996,.109,.215,.215,.434,.328,.648,.039,.074,.137,.184,.152,.266-.027,.082-.055,.164-.086,.246-.012,.066-.027,.133-.039,.203-.074,.664,.473,1.184,.898,1.621,.738,.754,1.473,1.512,2.285,2.188,.398,.328,.812,.641,1.242,.926,.199,.133,.41,.25,.613,.379,.227,.141,.434,.32,.656,.469,.367,.242,.793,.441,1.23,.5,.184,.016,.363,.02,.547,.008,.047-.008,.094-.016,.137-.023,.121,.031,.25,.117,.363,.168,.402,.176,.812,.336,1.23,.48l.012,.004c-.512,2.662-2.982,4.871-5.752,4.871-1.28,0-2.625-.472-3.869-1.59Z" fill="#8cb8b1"/>
        <path d="M355.15,84.898c-8.469-5.43,4.23-16.336,6.137-22.348,3.852-14.977-1.824-25.742-15.293-32.789-6.645-2.512-13.93-3.129-20.402-6.211-5.422-2.527-10.582-6.492-14.207-11.438-.035-.215-.07-.426-.102-.637-.07-.484-.141-.973-.203-1.457-.141-1.07-.254-2.145-.328-3.219-.043-.59-.07-1.18-.098-1.77-.004-.082-.012-.16-.004-.238,.012-.137,.078-.305,.113-.438,.066-.262,.141-.52,.203-.781,.074-.301,.156-.594,.23-.891,.051-.211,.207-.391,.332-.566,.309-.438,.633-.859,.957-1.285,.105-.141,.207-.277,.316-.41,.07-.09,.141-.242,.234-.305,.113-.074,.367,.121,.473,.176,.059,.027,.332,.145,.379,.207,.035,.047,.039,.199,.059,.258,.082,.242,.277,.449,.426,.652,.309,.422,.637,.836,.973,1.238,.027,.031,.121,.137,.137,.172,0,.129,.02,.25,.066,.371,.031,.055,.059,.113,.09,.172,.125,.195,.27,.375,.391,.578,.574,.953,.949,2.004,1.445,2.996,.109,.215,.215,.434,.328,.648,.039,.074,.137,.184,.152,.266-.027,.082-.055,.164-.086,.246-.012,.066-.027,.133-.039,.203-.074,.664,.473,1.184,.898,1.621,.738,.754,1.473,1.512,2.285,2.188,.398,.328,.812,.641,1.242,.926,.199,.133,.41,.25,.613,.379,.227,.141,.434,.32,.656,.469,.367,.242,.793,.441,1.23,.5,.184,.016,.363,.02,.547,.008,.047-.008,.094-.016,.137-.023,.121,.031,.25,.117,.363,.168,.402,.176,.812,.336,1.23,.48,.984,.336,2,.586,3.035,.707,.613,.07,1.246,.09,1.863,.062,.074-.004,.18-.027,.254-.016,.113,.02,.223,.07,.332,.102,.18,.051,.355,.105,.535,.16,.621,.184,1.238,.387,1.863,.555,.801,.215,1.598,.379,2.418,.5,.754,.113,1.52,.176,2.277,.258,.945,.098,1.891,.219,2.828,.363,.906,.137,1.809,.273,2.695,.516,1.691,.461,3.293,1.184,4.906,1.863,1.094,.461,2.176,.953,3.258,1.449,.59,.27,1.18,.535,1.762,.82,.109,.051,.219,.102,.328,.156,.133,.062,.309,.121,.426,.203,.141,.098,.258,.227,.383,.344,1.41,1.312,2.816,2.633,4.164,4.012,.77,.781,1.559,1.543,2.324,2.332,.785,.805,1.531,1.645,2.289,2.477,.703,.773,1.434,1.551,1.969,2.453,.566,.957,1.008,1.961,1.379,3.012,.191,.547,.359,1.09,.453,1.664,.09,.543,.25,1.074,.461,1.586,.211,.508,.418,1.02,.57,1.551,.07,.238,.137,.477,.199,.719,.066,.262,.113,.535,.211,.789,.188,.477,.594,.844,1.113,.906,.449,.051,.895-.121,1.242-.395,.094-.074,.18-.156,.258-.242,1.297,5.293,1.172,10.938,.625,16.316-.161,2.69-.887,5.203-1.946,7.587-.978,.385-1.853,1.003-2.64,1.691-.812,.707-1.574,1.484-2.234,2.336-.734,.949-1.375,1.941-1.961,2.988-.078,.137-.141,.289-.23,.418-.059,.031-.113,.074-.156,.129-.043,.051-.086,.105-.125,.156-.145,.219-.258,.465-.387,.695-.254,.453-.504,.914-.742,1.375-.477,.918-.949,1.84-1.426,2.758-.896,1.727-1.771,3.465-2.651,5.202-.297,.062-.606,.095-.928,.095-.859,0-1.812-.234-2.879-.77Z" fill="#8cb8b1"/>
        <path d="M287.82,103.427c-14.849-.43-29.748-1.88-44.32-4.805-5.012-1.203-9.543-3.762-14.031-6.203-9.27-4.87-17.135-11.843-24.961-18.699-5.967-5.302-11.811-10.744-17.18-16.656-6.992-6.994-13.905-14.061-20.649-21.296-7.065-8.139-13.419-8.773-23.672-8.914-.5-.012-1.008-.07-1.504-.031-.357,.084-.769-.088-.82-.488-.068-.909,1.072-.738,1.687-.797,1.207-.086,2.418-.137,3.629-.187,9.876-.413,15.903,.612,23.668,7.023,4.893,3.723,9.112,8.228,13.461,12.551,7.333,7.421,14.992,14.492,23.149,21.004,7.673,6.435,15.897,12.105,24.726,16.832,4.367,2.627,8.885,4.978,13.574,6.981,9.012,4.105,18.717,6.447,28.324,8.718,5.08,1.196,10.357,1.491,15.465,2.348,.93,.602,.787,2.753-.547,2.621Z" fill="#f1f8ff"/>
        <path d="M221.13,151.123c-.824-.215-1.273-.891-1.789-1.512-1.815-2.204-3.936-4.161-5.297-6.707-2.763-4.296-2.739-9.622-4.926-14.16-1.419-2.8-3.018-5.506-4.496-8.277-.402-.35-.603-.904-.543-1.441,.215-1.594,1.511-.668,2.387-.195,6.596,3.929,9.557,11.428,11.129,18.594,1.099,3.081,2.626,6.032,4.387,8.785,1.375,1.325,1.72,4.951-.851,4.914Z" fill="#f1f8ff"/>
        <path d="M337.704,51.399c-7.3-1.398-10.295-9.967-10.051-16.609-.14-2.692,.665-6.756,3.59-3.059,1.562,2.009,2.8,4.279,4.555,6.141,3.775,3.342,9.005,4.313,13.344,6.73,2.413,1.161,2.838,5.378,.512,6.816-1.195,.445-2.527-.032-3.77,.051-2.717-.042-5.489,.425-8.18-.07Z" fill="#f1f8ff"/>
        <path d="M385.355,52.4c-1.734-.047-2.797-1.602-3.094-3.172-.783-3.823,2.374-6.812,5.519-8.343,4.984-2.936,9.981-.507,15.117,.269,1.618,.22,3.347,.542,4.953,.133,.254-.121,.539-.086,.758,.082,.594,.441,.582,1.43,.258,2.027-.141,.254-.363,.496-.652,.574-.826,.45-1.554,1.116-2.387,1.586-2.931,2.236-6.52,2.757-10.062,3.297-3.622,.686-6.684,3.358-10.41,3.547Z" fill="#f1f8ff"/>
        <path d="M151.953,46.299c-1.511-2.271-3.888-4.224-6.66-4.582-2.073-.16-8.137,.59-8.121-2.481,.985-3.583,6.122-4.912,9.379-4.058,3.705,1.293,6.886,3.871,9.496,6.75,.531,.578,1.215,1.148,1.254,1.984,.05,2.4-3.686,4.421-5.348,2.387Z" fill="#f1f8ff"/>
        <path d="M144.479,61.281c-5.339-1.403-11.755-5.155-12.156-11.242-.296-2.013-.011-4.309,1.93-5.406,1.164-.754,3.484-1.223,4.012,.555,.137,.449,.055,.906,.316,1.316,.285,.445,.742,.812,1.109,1.187,1.537,1.557,3.064,3.206,5.086,4.125,1.076,.493,2.271,.702,3.41,.996,.983,.077,2.013,.417,2.512,1.332,1.57,3.568-2.746,7.479-6.219,7.137Z" fill="#92bfb7"/>
        <path d="M169.236,106.056c-.98-.977-1.539-2.324-1.539-3.711,0-2.859,2.391-5.25,5.25-5.25s5.25,2.391,5.25,5.25c0,1.387-.559,2.734-1.539,3.711-1.023,1.027-2.293,1.445-3.711,1.539-1.418-.094-2.688-.512-3.711-1.539Z" fill="#0c0f21"/>
        <path d="M174.945,109.257c-.652-.102-1.27-.246-1.855-.562-.254-.137-.492-.293-.715-.477-2.407,.345-4.286-1.281-5.871-2.836-2.485-2.622-.678-7.059,2.375-8.352,1.766-2.282,5.169-1.51,7.316-.215,2.988,1.55,4.939,5.206,3.356,8.418,.538,2.413-2.423,4.337-4.605,4.023Z" fill="#e1faf6"/>
        <g>
          <path d="M439.904,25.582c-1.406-2.979-3.801-.112-5.226,1.245-1.154,1.004-2.375,1.932-3.639,2.792-3.371,2.365-7.167,3.387-11.225,4.295-3.241,.639-6.595,1.072-9.92,.865-4.688-.27-9.143-2.185-13.877-2.025-9.153,.278-18.663,4.193-24.241,11.653-1.086-14.137-15.201-22.9-27.665-26.434-3.995-1.084-8.08-1.756-12.176-2.304-3.405-.497-7.105-.899-9.812-3.242-2.528-2.248-3.999-5.204-5.461-8.227-.802-1.483-1.201-3.703-3.055-4.18-1.557-.215-2.474,1.437-3.008,2.664-1.462,3.787-.359,8.001,1.266,11.555,2.396,5.267,7.048,9.448,7.988,15.35,1.087,5.232,1.054,10.733,3.098,15.736,2.629,7.002,9.775,11.407,17.211,10.675,3.745,.145,13.426-1.145,14.938,3.14-.007,9.797-7.357,18.357-15.241,23.602-9.763,6.706-20.963,12.033-32.96,12.966-10.139,.736-20.064-2.798-29.625-5.781-34.603-9.723-47.613-19.099-74.46-42.097-11.753-11.094-22.692-23.605-36.462-32.325-2.301-1.368-4.875-2.354-7.582-2.375-.352,.014-.778,0-1.205,.014-4.685-.643-9.42-.849-14.146-1.033-6.122-.275-12.257-.671-18.379-.207-8.981,.94-17.905,2.365-26.936,2.917-7.05,.579-14.016-.944-21.009-1.582-5.808-.533-11.657-.741-17.457-1.383-6.21-.59-12.428-.976-18.641-1.492-8.966-.517-18.644-1.979-27.035,2.015-1.092,.647-6.036,3.644-6.055,5.541-3.805-.15-6.85,.986-7.667,6.58-.973,5.637,1.16,11.156,3.512,16.188,2.461,5.289,4.898,10.594,7.695,15.723,3.629,6.922,9.023,12.672,13.676,18.898,4.695,6.145,9.273,12.422,14.691,17.965,3.961,4.207,8.66,7.562,13.121,11.203,4.195,3.641,8.449,7.234,13.305,9.988,7.055,3.949,13.246,9.551,20.91,12.336,6.344,2.289,13.059,2.828,19.453,5.055,9.613,3.367,18.297,9.039,28.16,11.797,1.01,.312,2.027,.596,3.046,.865,.336,.629,.785,1.219,1.102,1.848,6.145,9.093,19.024,16.84,29.43,19.922,2.277,.258,3.718-2.222,3.234-4.254-.522-2.449-2.174-4.475-3.187-6.734-1.085-2.193-2.047-4.595-2.707-7.117-.022-.087-.076-.154-.116-.231,.578,.017,1.156,.034,1.733,.048,.782,.024,1.563,.035,2.344,.035,5.891,0,11.759-.633,17.629-1.047,.271-.043,.591-.045,.923-.04,9.354,16.074,28.685,23.569,45.728,28.778,.576,.138,1.174,.208,1.773,.208,2.027,0,4.061-.803,5.27-2.489,2.188-3.566-.543-7.746-2.605-10.723-4.048-5.844-8.605-11.401-11.899-17.723,.42-.058,.841-.126,1.258-.181,.132,.048,.271,.076,.418,.068,6.074-.386,12.139-.968,18.18-1.75,18.969-3.103,37.427-8.558,55.602-14.727,7.883-2.857,15.682-5.925,23.563-8.785,6.305-2.639,12.051-6.456,17.34-10.758,9.686-7.423,14.569-18.847,20.211-29.289,3.031-5.352,6.666-13.593,14.086-12.477,3.651,.893,6.556,3.367,10.222,4.367,6.529,1.491,13.46,.385,19.688-1.879,13.315-5.137,14.22-11.446,20.924-22.312,3.736-6.126,13.466-14.023,11.951-21.696Zm-102.808,27.868c-5.803-.316-10.478-4.732-12.228-10.135-1.6-4.866-1.589-10.074-2.742-15.042-1.575-8.798-12.83-15.791-8.834-25.381,3.903,8.862,7.222,14.306,17.635,15.162,12.409,1.263,25.136,5.357,33.648,15.005,3.09,3.529,4.501,8.131,4.826,12.811,.044,.348,.044,.704,.044,1.059-1.913,1.318-3.146,3.399-4.637,5.145-2.136,2.632-4.959,5.021-7.114,7.779-.433-8.278-14.04-6.041-20.597-6.402Zm-168.558,107.46c2.406,5.04-2.557,1.908-4.875,1.018-6.387-2.645-12.29-6.484-17.5-11.05-1.834-1.554-3.578-3.45-4.943-5.536,7.297,1.599,14.774,2.248,22.249,2.537-.984,2.404,4.3,11.435,5.069,13.031Zm67.562,12.52c-1.895,.066-3.664-.781-5.438-1.328-3.645-1.168-7.266-2.41-10.82-3.844-9.121-4.023-18.102-8.754-24.973-16.184-.593-.698-1.168-1.422-1.723-2.168l-.003-.003c-.855-.875-1.672-1.805-2.398-2.789-.386-.524-.747-1.07-1.088-1.628-.041-.067-.077-.137-.118-.205-.312-.525-.611-1.059-.881-1.604-.562-1.129-.98-2.328-1.332-3.539-.09-.305-.176-.613-.258-.918l-.012-.023c-.285-.551-.504-1.125-.711-1.707-.402-1.156-.738-2.32-.984-3.52-.233-1.122-.341-2.252-.366-3.391-.249-1.725-.374-3.457-.361-5.176,.895-7.602,6.621-14.77,13.973-17.094,.137,.082,.293,.141,.465,.16,.227,.027,.457,.062,.684,.102,14.582,4.466,17.294,22.845,23.348,35.405,.032,.286,.159,.555,.377,.757,.279,.554,.562,1.1,.857,1.627,2.312,4.516,5.398,8.555,8.316,12.688,1.98,3.328,11.496,13.039,3.445,14.383ZM430.099,40.281c-2.988,3.623-5.672,7.492-7.797,11.688-3.988,9.473-12.023,14.999-21.942,16.945-4.17,.807-8.935,1.184-13.109-.09-2.46-.903-4.634-2.327-7.07-3.336-11.03-4.857-17.029,8.473-21.195,16.328-7.872,16.359-14.65,25.301-31.11,33.969-3.974,2.018-8.523,3.425-12.758,4.942-3.601,1.367-7.163,2.834-10.778,4.168-.236-.462-.747-.792-1.279-.69-1.445,.277-2.891,.543-4.355,.727-5.298,.774-10.67,.545-16.004,.366-5.336-.51-10.752-1.74-16.16-1.831-4.945-.29-9.852-.253-14.769-1.121-5.466-1.004-10.915-3.374-16.32-4.875-3.677-1.03-7.445-1.681-11.172-2.48-1.364-.135-3.889-1.491-4.375,.511-.082,.672,.41,1.321,1.086,1.399,3.474,.618,6.928,1.397,10.383,2.117,7.384,1.563,14.244,5.064,21.758,6.078,5.011,.657,10.081,.642,15.113,.973,6.959,.43,14.045,2.232,21.105,1.882,2.256,.09,4.509-.023,6.754-.231-3.503,1.157-7.018,2.274-10.543,3.355-.053-.628-.596-1.182-1.244-1.156-5.686,.09-11.292,.077-16.98-.328-5.141-.41-10.277-.961-15.344-1.922-8.237-1.781-16.441-5.404-25.023-5.844-.933,.081-2.046-.56-2.816,.164-.504,.508-.449,1.262,.004,1.77,.363,.406,.969,.434,1.473,.469,2.311,.162,4.62,.406,6.902,.812,6.104,1.207,11.978,3.509,18.047,4.887,9.976,1.977,20.182,2.605,30.336,2.531,.02-.004,.044-.004,.064-.007-3.771,1.11-7.557,2.166-11.362,3.15-.102-.578-.621-1.087-1.232-1.052-4.483,.253-8.747-.105-13.234-.959-7.659-1.757-15.473-3.242-23.298-4.154-1.424,.035-4.524-1.482-4.934,.578-.077,1.898,2.385,1.397,3.637,1.75,7.874,.997,15.665,2.272,23.391,4.133,3.211,.642,6.47,1.052,9.74,1.176-3.317,.787-6.65,1.511-10,2.172-.514-.227-1.22-.21-1.781-.206-4.667-.387-9.304-1.345-13.918-2.152-1.673-.103-8.158-2.276-7.695,.816,.168,.648,.807,1.008,1.444,.903,4.577,.176,9.056,1.439,13.588,2.123-4.85,.676-9.787,1.083-14.629,1.475-1.66-.243-4.331,.43-5.369,.369-.019,.003-.034,0-.053,.003-2.786-6.02-4.949-12.521-7.57-18.614-2.895-6.453-7.012-12.887-13.402-16.309-1.855-.941-3.84-1.746-5.926-1.836-1.199,.176-2.316,.715-3.398,1.23-6.422,3.277-11.258,9.598-12.66,16.68-.944,7.173,1.682,14.322,4.558,20.781-2.98,.16-5.946,.515-8.924,.723-15.336,.762-31.012-.004-45.664-4.992-8.57-2.922-16.301-7.805-24.863-10.742-7.629-2.707-15.828-2.938-23.176-6.625-7.023-4.121-13.949-8.984-20.957-13.227-5.98-4.492-11.586-9.48-17.477-14.098-5.727-5.07-10.57-11.02-15.172-17.102-6.711-9.207-14.758-17.531-19.492-28.023C8.227,43.433-.266,30.746,3.361,22.858c.422,1.024,.81,2.055,1.152,3.106,2.073,7.385,4.239,14.785,7.776,21.631,7.156,15.105,17.647,28.308,29.48,40.016,7.431,7.478,15.173,14.648,23.75,20.809,6.125,4.322,12.272,8.711,19.23,11.609,5.508,2.281,11.119,4.341,16.805,6.133,5.329,1.738,10.657,2.857,15.875,5.039,10.873,4.481,21.985,9.167,33.879,9.793,.674,.056,1.259-.581,1.27-1.23,.012-.711-.555-1.215-1.234-1.27-3.993-.249-8.159-.922-12.055-2.004-8.674-2.185-16.718-6.157-25.105-9.16-9.679-2.894-19.413-5.686-28.703-9.711-5.921-2.477-11.13-6.072-16.398-9.738-8.547-5.938-16.308-12.808-23.664-20.176-12.492-12.115-23.645-25.75-31.078-41.599-1.705-3.51-3.347-7.333-4.559-11.1-1.534-4.703-2.516-9.657-4.569-14.19-.013-.07-.039-.132-.063-.196,.724-.271,1.542-.231,2.315-.194,.209,.015,.417,.039,.625,.056,.325,.656,1.061,1.314,1.418,1.972,4.201,6.552,7.235,13.681,10.676,20.654,6.895,15.333,17.081,28.819,28.356,41.191,11.958,11.813,24.99,22.861,39.804,30.918,5.967,3.199,12.465,5.315,18.992,7.047,3.273,.756,6.497,1.292,9.715,2.457,7.878,2.821,15.663,6.8,23.992,8.297,1.627,.459,2.173-2.028,.668-2.406-2.791-.594-5.534-1.236-8.238-2.188-6.467-2.291-12.92-5.462-19.602-7.27-5.604-1.122-11.212-2.65-16.629-4.668-12.265-4.75-23.137-12.811-33.09-21.308-10.342-8.288-19.302-18.092-27.148-28.77-6.746-8.314-11.477-17.964-16.117-27.551-.972-1.723-5.921-13.184-9.434-18.012,1.484,.201,2.962,.447,4.426,.74,.906,.241,1.818,.448,2.733,.641,5.382,8.201,9.554,17.474,14.493,26.007,9.455,15.098,20.203,29.549,33.019,41.973,4.522,4.24,9.835,7.442,14.988,10.84,5.021,3.27,10.39,6.038,15.969,8.223,8.117,3.053,16.554,4.907,24.574,8.34,8.066,3.401,15.804,7.706,24.254,10.121,5.7,1.588,11.545,2.608,17.461,2.883,1.753-.024,1.551-2.484,.035-2.5-3.501-.197-7.024-.577-10.457-1.254-12.415-2.156-23.202-9.09-34.922-13.309-6.962-2.759-14.356-4.22-21.266-7.101-9.085-3.711-17.367-9.227-25.293-14.969-6.984-5.514-12.533-12.516-18.301-19.231-3.919-4.534-7.321-9.48-10.699-14.422-3.385-4.852-6.773-9.701-9.492-14.969-3.583-6.523-6.807-13.251-10.734-19.578-.101-.118-.205-.27-.31-.437,2.338,.386,4.69,.697,7.039,1.024,.007,.99,1.168,2.176,1.628,3.049,1.686,2.639,3.102,5.437,4.531,8.223,7.254,14.014,14.821,28.488,26.824,39.062,6.238,5.037,12.756,9.705,18.914,14.844,4.085,3.199,7.942,6.904,12.746,9,9.796,4.316,20.072,7.386,29.981,11.41,7.688,3.223,14.875,7.598,22.816,10.242,1.556,.641,2.413-1.713,.969-2.301-3.984-1.426-7.889-3.037-11.664-4.955-12.197-6.694-25.812-10.246-38.606-15.658-6.112-2.072-10.805-6.646-15.766-10.582-4.111-3.308-8.252-6.594-12.48-9.754-13.822-9.67-22.346-24.759-29.941-39.441-2.224-4.303-4.418-8.63-7.032-12.711,.899,.14,1.796,.288,2.69,.454,1.533,.328,3.071,.715,4.612,1.121,.096,.146,.199,.286,.313,.407,2.998,4.188,5.994,8.388,8.863,12.672,4.251,6.374,8.21,13.315,12.797,19.512,8.91,9.861,18.008,19.939,29.371,27.035,5.684,3.367,11.625,6.288,17.785,8.679,3.628,1.243,7.098,2.413,10.699,4.031,6.775,3.117,13.485,6.327,20.442,9.027,.615,.273,1.374-.043,1.637-.668,.27-.633-.039-1.363-.664-1.637-2.332-1.023-4.723-1.91-7.074-2.883-4.505-1.886-8.823-4.193-13.313-6.117-4.95-2.31-10.048-3.543-15.082-5.859-6.751-2.961-13.399-6.377-19.207-10.957-8.076-6.14-14.96-13.855-21.87-21.299-5.309-6.704-9.358-14.334-14.197-21.377-2.15-3.223-4.448-6.347-6.654-9.535,2.228,.603,4.459,1.191,6.686,1.659,.942,.241,1.888,.457,2.834,.664,.026,.034,.049,.072,.077,.104,3.798,5.679,7.242,11.775,11.113,17.434,4.485,6.659,10.36,12.239,16.648,17.176,6.122,5.073,12.375,10.014,19.121,14.242,4.392,2.796,9.104,5.036,13.781,7.305,6.616,3.601,13.665,7.078,20.254,10.82,.576,.35,1.37,.136,1.707-.453,.348-.594,.133-1.355-.449-1.707-1.939-1.192-3.943-2.268-5.984-3.273-6.59-3.31-12.94-7.073-19.645-10.164-13.006-6.588-24.753-16.132-35.531-25.98-6.962-6.751-11.637-15.334-16.765-23.465-.28-.447-.571-.883-.861-1.321,2.852,.56,5.71,1.088,8.544,1.782-.082,.387,.001,.806,.328,1.115,13.064,21.649,25.898,33.717,48.981,44.422,11.639,5.434,23.208,11.432,32.871,20.032,1.326,1.008,2.768-.994,1.527-1.981-5.139-4.413-10.612-8.453-16.555-11.723-6.828-3.973-14.032-7.234-21.127-10.685-19.321-9.645-31.522-21.407-42.599-39.901-.098-.128-.189-.27-.278-.417,3.412,1.025,6.843,2.112,10.171,3.452,.085,.954,1.013,2.086,1.377,2.91,14.549,26.812,31.101,31.422,56.858,43.079,10.753,5.001,19.811,12.727,28.279,20.952,1.205,1.159,2.884-.637,1.773-1.766-4.763-4.486-9.537-8.993-14.801-12.895-11.088-8.556-24.635-12.766-37.097-18.821-13.369-6.244-24.544-16.714-31.669-29.703-.418-.747-.854-1.488-1.273-2.239,1.982,.948,3.913,2.007,5.749,3.253,6.547,4.164,10.762,10.883,16.363,16.109,7.059,6.828,15.395,12.344,24.688,15.609,12.266,5.172,29.902,7.902,38,19.238,.828,1.156,1.887,4.211,3.645,2.539,.406-.535,.301-1.258-.168-1.699-2.734-5.113-7.203-8.844-12.332-11.426-13.246-7.371-29.051-9.09-41.715-17.699-5.363-3.605-10.297-7.875-14.598-12.711-3.816-4.578-7.922-9.16-13.02-12.383-11.531-7.445-25.219-9.504-38.391-12.426-5.898-1.305-11.625-3.336-17.609-4.23-4.105-.447-8.056-1.073-12.049-1.839-.309-.216-.642-.308-1.008-.186-1.472-.291-2.952-.602-4.451-.932-1.334-.197-2.67-.433-3.961-.611,.284-.305,.563-.623,.859-.834,3.532-3.516,8.594-4.755,13.453-5.013,15.799-.333,31.527,2.18,47.286,3.016,7.216,.381,14.323,1.87,21.547,2.103,10.598-.063,21.074-1.974,31.586-3.047,4.956-.361,10.293-.173,15.309,.102,5.181,.209,10.312,.349,15.47,.971,.419,.284,1.033,.328,1.555,.201,.614,.086,1.228,.174,1.843,.277,.432,.067,.781,.004,1.058-.132,1.195,.217,2.354,.619,3.459,1.205,14.756,8.729,25.824,22.314,38.455,33.719,11.42,9.352,22.519,19.305,35.473,26.535,12.891,7.154,26.958,11.596,41.035,15.758,4.842,1.544,9.694,3.118,14.687,4.117,13.454,3.221,27.394-.663,39.301-7.094,9.471-5.167,19.065-12.19,23.088-22.409,.201-.156,.369-.357,.443-.613,.577-1.443,1.382-2.797,2.197-4.119,1.676-2.656,4.269-4.95,6.418-7.27,1.906-1.945,3.25-4.163,5.174-6.124l.002-.002c.11,4.255-.572,8.546-1.833,12.622-.561,1.536,1.744,2.417,2.332,.894,.613-1.677,2.917-11.386,1.783-15.162,6.711-10.828,21.201-14.92,33.137-11.13,4.191,.846,8.519,.724,12.715-.008,7.246-1.042,14.206-3.965,19.353-9.281-.822,5.025-4.523,8.953-7.564,12.832Z" fill="#070707"/>
          <path d="M145.608,43.486c-.452-.391-1.018-.701-1.699-.906-.346-.143-.717-.208-1.104-.216-.214-.023-.416-.059-.646-.063-.434,.056-.825,.172-1.194,.312-.267,.065-.529,.133-.776,.197-1.477,.474-4.066,.883-3.662,2.974-1.096,3.687,1.34,7.709,4.681,9.303,1.501,.631,2.462-1.639,.973-2.305-1.016-.507-1.888-1.344-2.518-2.301,1.467,.701,4.299,3.012,5.359,.681,1.553-.43,3.429-.061,4.808-.881,2.157-1.833-1.846-5.611-4.222-6.797Zm-1.114,3.13c-.194,.196-.403,.373-.648,.486-1.39,.469-2.853-.692-1.104-1.698,.129-.052,.271-.124,.411-.108,.111,.033,.224,.042,.335,.041,.234,.075,.468,.167,.702,.275,.247,.307,.348,.66,.303,1.005Zm1.964,1.796c.077-.135,.148-.27,.207-.411,.094-.133,.176-.268,.235-.407,.223,.245,.416,.488,.559,.717-.335,.024-.669,.056-1.001,.101Z" fill="#070707"/>
        </g>
      </g>
    </g>
  </g>
</svg>